<svg width="24" height="24" viewBox="0 0 24 24" fill="none" xmlns="http://www.w3.org/2000/svg">
<path d="M19.2803 6.28033C19.5732 5.98744 19.5732 5.51256 19.2803 5.21967C18.9874 4.92678 18.5126 4.92678 18.2197 5.21967L12.25 11.1893L6.28033 5.21967C5.98744 4.92678 5.51256 4.92678 5.21967 5.21967C4.92678 5.51256 4.92678 5.98744 5.21967 6.28033L11.1893 12.25L5.21967 18.2197C4.92678 18.5126 4.92678 18.9874 5.21967 19.2803C5.51256 19.5732 5.98744 19.5732 6.28033 19.2803L12.25 13.3107L18.2197 19.2803C18.5126 19.5732 18.9874 19.5732 19.2803 19.2803C19.5732 18.9874 19.5732 18.5126 19.2803 18.2197L13.3107 12.25L19.2803 6.28033Z" fill="#65b010"/>
</svg>
