<svg width="24" height="24" viewBox="0 0 24 24" fill="none" xmlns="http://www.w3.org/2000/svg">
<path fill-rule="evenodd" clip-rule="evenodd" d="M10.9748 2.25H13.0253C13.4697 2.24999 13.8408 2.24999 14.1454 2.27077C14.4625 2.29241 14.762 2.33905 15.0524 2.45933C15.7263 2.73847 16.2615 3.27384 16.5406 3.94761C16.6608 4.23795 16.7075 4.53744 16.7292 4.85456C16.7375 4.97572 16.7424 5.10739 16.7454 5.25H20C20.4142 5.25 20.75 5.58579 20.75 6C20.75 6.41421 20.4142 6.75 20 6.75H18.75V17.8331C18.75 18.366 18.75 18.811 18.7204 19.1746C18.6894 19.5544 18.6224 19.9112 18.4505 20.2485C18.1866 20.7664 17.7653 21.1868 17.2483 21.4502C16.9111 21.6221 16.5546 21.6892 16.1747 21.7202C15.8105 21.75 15.3646 21.75 14.8303 21.75H9.17013C8.63579 21.75 8.18973 21.75 7.82532 21.7202C7.44538 21.6892 7.0886 21.6221 6.7513 21.4502C6.23374 21.1865 5.81333 20.7659 5.54973 20.2485C5.37789 19.9113 5.31078 19.5546 5.27974 19.1747C5.24998 18.8104 5.24999 18.3646 5.25 17.8304L5.25 6.75H4C3.58579 6.75 3.25 6.41421 3.25 6C3.25 5.58579 3.58579 5.25 4 5.25H7.25453C7.25753 5.10741 7.2625 4.97577 7.27077 4.85463C7.29241 4.53753 7.33905 4.238 7.45933 3.94761C7.73837 3.27395 8.27337 2.73851 8.94736 2.45933C9.23778 2.33904 9.53739 2.2924 9.85452 2.27077C10.1592 2.24999 10.5303 2.24999 10.9748 2.25ZM8.75485 5.25H15.2451C15.2426 5.14077 15.2386 5.04428 15.2327 4.9568C15.2162 4.71609 15.1867 4.59883 15.1547 4.52163C15.0279 4.21529 14.7846 3.97199 14.4784 3.84515C14.4012 3.81319 14.284 3.78372 14.0433 3.76729C13.7958 3.75041 13.4762 3.75 13 3.75H11C10.5238 3.75 10.2041 3.75041 9.9566 3.76729C9.71577 3.78372 9.59851 3.8132 9.52139 3.84515C9.21527 3.97195 8.97209 4.21518 8.84515 4.52163C8.81319 4.59878 8.78372 4.716 8.76729 4.95673C8.76132 5.04423 8.75741 5.14074 8.75485 5.25ZM6.75 6.75V17.8C6.75 18.3724 6.75058 18.7567 6.77476 19.0525C6.79822 19.3397 6.8401 19.477 6.88624 19.5675C7.00614 19.8029 7.1972 19.9939 7.43229 20.1137C7.52282 20.1599 7.66018 20.2018 7.94746 20.2252C8.24345 20.2494 8.62779 20.25 9.2002 20.25H14.8002C15.3726 20.25 15.7567 20.2494 16.0525 20.2252C16.3394 20.2018 16.4767 20.1599 16.5673 20.1137C16.8029 19.9937 16.9943 19.8024 17.114 19.5675C17.1601 19.4771 17.2019 19.3399 17.2253 19.0527C17.2495 18.7567 17.25 18.3725 17.25 17.8V6.75H6.75Z" fill="#65b010"/>
</svg>
